<svg class="icon" xmlns="http://www.w3.org/2000/svg">
    <g id="icon-search" stroke="none" stroke-width="1" fill="currentColor" fill-rule="evenodd">
        <path d="M29,27.5859l-7.5521-7.5521a11.0177,11.0177,0,1,0-1.4141,1.4141L27.5859,29ZM4,13a9,9,0,1,1,9,9A9.01,9.01,0,0,1,4,13Z"/>
    </g>
    <g id="icon-children" fill="currentColor" fill-rule="evenodd">
        <path d="M8 30H2V24H8zM4 28H6V26H4zM19 30H13V24h6zm-4-2h2V26H15zM30 30H24V24h6zm-4-2h2V26H26zM16 10a4 4 0 114-4A4.0045 4.0045 0 0116 10zm0-6a2 2 0 102 2A2.002 2.002 0 0016 4zM26 16H21a4.0045 4.0045 0 01-4-4H15a4.0045 4.0045 0 01-4 4H6a2.0023 2.0023 0 00-2 2v4H6V18h5A5.9694 5.9694 0 0015 16.46V22h2V16.46A5.9694 5.9694 0 0021 18h5v4h2V18A2.0023 2.0023 0 0026 16z"/>
    </g>
    <g id="icon-loader" fill-rule="evenodd">
        <path d="M100 50.5908C100 78.2051 77.6142 100.591 50 100.591C22.3858 100.591 0 78.2051 0 50.5908C0 22.9766 22.3858 0.59082 50 0.59082C77.6142 0.59082 100 22.9766 100 50.5908ZM9.08144 50.5908C9.08144 73.1895 27.4013 91.5094 50 91.5094C72.5987 91.5094 90.9186 73.1895 90.9186 50.5908C90.9186 27.9921 72.5987 9.67226 50 9.67226C27.4013 9.67226 9.08144 27.9921 9.08144 50.5908Z" fill="currentColor"/>
        <path d="M93.9676 39.0409C96.393 38.4038 97.8624 35.9116 97.0079 33.5539C95.2932 28.8227 92.871 24.3692 89.8167 20.348C85.8452 15.1192 80.8826 10.7238 75.2124 7.41289C69.5422 4.10194 63.2754 1.94025 56.7698 1.05124C51.7666 0.367541 46.6976 0.446843 41.7345 1.27873C39.2613 1.69328 37.813 4.19778 38.4501 6.62326C39.0873 9.04874 41.5694 10.4717 44.0505 10.1071C47.8511 9.54855 51.7191 9.52689 55.5402 10.0491C60.8642 10.7766 65.9928 12.5457 70.6331 15.2552C75.2735 17.9648 79.3347 21.5619 82.5849 25.841C84.9175 28.9121 86.7997 32.2913 88.1811 35.8758C89.083 38.2158 91.5421 39.6781 93.9676 39.0409Z" fill="currentFill"/>
    </g>
</svg>
